<?xml version="1.0" ?><svg id="solid" viewBox="0 0 512 512" xmlns="http://www.w3.org/2000/svg"><title/><path d="M344,72V32.757a5,5,0,0,1,8.536-3.535l42.242,42.242A5,5,0,0,1,391.243,80H352A8,8,0,0,1,344,72Zm57.042,421.562A1.428,1.428,0,0,1,400.036,496H48a8,8,0,0,1-8-8V24a8,8,0,0,1,8-8H320a8,8,0,0,1,8,8V88a8,8,0,0,0,8,8h64a8,8,0,0,1,8,8V359.926a2,2,0,0,1-3.414,1.414l-10.478-10.478a23.936,23.936,0,0,0-8.372-5.45,5.983,5.983,0,0,1-3.389-7.876A128.056,128.056,0,0,0,182.441,189.98a8.891,8.891,0,0,1-5.678,2.02H112a8,8,0,0,0-7.983,8.533A8.183,8.183,0,0,0,112.275,208H160.47a1.994,1.994,0,0,1,1.588,3.2,126.639,126.639,0,0,0-21.274,42.589A3,3,0,0,1,137.9,256H112a8,8,0,0,0-7.983,8.533A8.183,8.183,0,0,0,112.275,272h21.433a2.991,2.991,0,0,1,2.982,3.288A129.737,129.737,0,0,0,139,316.38a2.99,2.99,0,0,1-2.93,3.62H112a8,8,0,0,0-7.983,8.533A8.183,8.183,0,0,0,112.275,336H143.01a3,3,0,0,1,2.768,1.862,127.789,127.789,0,0,0,27.713,41.285q.72.721,1.451,1.427a2,2,0,0,1-1.4,3.426H112a8,8,0,0,0-7.983,8.533A8.183,8.183,0,0,0,112.275,400h86.469a8.081,8.081,0,0,1,3.876,1.008A128.688,128.688,0,0,0,312.9,406.931a6.026,6.026,0,0,1,7.916,3.5,23.859,23.859,0,0,0,5.415,8.317ZM112,128a8,8,0,0,0,0,16H336a8,8,0,0,0,0-16ZM461.99,441.372a32,32,0,0,1-45.255,45.256l-79.2-79.2a8,8,0,0,1-1.611-9.007,4.1,4.1,0,0,0-.732-4.65l-9.684-9.684a1.994,1.994,0,0,0-2.468-.275A111.779,111.779,0,1,1,359.2,347.7a2,2,0,0,0,.274,2.473l9.673,9.672a4.082,4.082,0,0,0,4.637.724,8.04,8.04,0,0,1,6.41-.136,8.348,8.348,0,0,1,2.735,1.88ZM328,288.638a64,64,0,1,0-18.745,45.254A63.581,63.581,0,0,0,328,288.638Z" style="fill:#3b3b3b"/></svg>